<?xml version="1.0" encoding="utf-8"?>
<!-- Generator: Adobe Illustrator 20.1.0, SVG Export Plug-In . SVG Version: 6.00 Build 0)  -->
<svg version="1.1" id="Layer_1" xmlns="http://www.w3.org/2000/svg" xmlns:xlink="http://www.w3.org/1999/xlink" x="0px" y="0px"
	 viewBox="0 0 1503.5 496" style="enable-background:new 0 0 1503.5 496;" xml:space="preserve">
<style type="text/css">
	.st0{fill:#333333;}
	.st1{fill:#62BB46;}
	.st2{fill:#009DDD;}
	.st3{fill:#004FA3;}
	.st4{opacity:0.5;}
	.st5{fill:#FFFFFF;}
</style>
<g>
	<path class="st0" d="M537,82.9c0-1,0-2.4,0-3.4c0.8,1.3,1.8,2.6,2.9,3.9l37.7,50h3.4l38-50c1-1.3,1.8-2.6,2.9-3.9c0,1,0,2.4,0,3.4
		v86.4h9.2V58h-3.9l-47.4,62.6L532.3,58h-3.9v111.3h9.2V82.9H537z"/>
	<path class="st0" d="M679,170.6c19.4,0,34.8-15.5,34.8-35.1s-15.2-34.8-34.8-34.8c-19.4,0-35.1,15.7-35.1,34.8
		C643.9,154.9,659.6,170.6,679,170.6z M679,109.3c14.9,0,25.4,10.7,25.4,26.2c0,15.2-10.7,26.5-25.4,26.5c-14.9,0-25.7-11-25.7-26.5
		C653.4,120.3,664.1,109.3,679,109.3z"/>
	<path class="st0" d="M755.8,170.6c19.4,0,34.8-15.5,34.8-35.1s-15.2-34.8-34.8-34.8c-19.4,0-35.1,15.7-35.1,34.8
		C720.7,154.9,736.4,170.6,755.8,170.6z M755.8,109.3c14.9,0,25.4,10.7,25.4,26.2c0,15.2-10.7,26.5-25.4,26.5
		c-14.9,0-25.7-11-25.7-26.5C730.1,120.3,740.9,109.3,755.8,109.3z"/>
	<path class="st0" d="M836.5,111.9l1.3,1l4.7-7.9l-1-0.8c-3.4-2.6-7.1-3.7-12.6-3.7c-7.1,0-13.1,3.4-17,9.2V102h-9.2v67.3h9.2v-38
		c0-14.9,8.1-21.7,16.2-21.7C831.8,109.6,834.4,110.4,836.5,111.9z"/>
	<path class="st0" d="M878.1,170.6c11.5,0,21.2-4.5,27.8-12.6l1-1l-6.5-5.8l-1,1.3c-5.2,6.3-12.3,9.4-21.2,9.4
		c-14.7,0-24.4-9.2-25.7-23.6h57.4v-1.6c0.3-10.7-3.4-20.4-10-27c-6-6-13.9-9.2-23.1-9.2c-18.9,0-33.8,15.5-33.8,35.1
		C843.3,156,858,170.6,878.1,170.6z M877.1,109.1c15.5,0,22.3,10.7,23.6,21.2h-47.4C855.1,117.4,864.2,109.1,877.1,109.1z"/>
	<path class="st0" d="M614.3,282c-8.4,11.8-21.7,18.3-37.5,18.3c-26.5,0-46.6-20.4-46.6-47.4c0-27,19.9-47.4,46.6-47.4
		c15.7,0,28.3,6,36.4,17.6l1,1.3l7.3-5.5l-0.8-1.3c-9.2-13.6-24.9-21-43.7-21c-32.2,0-56.3,24.1-56.3,56.3s24.1,56.3,56.3,56.3
		c18.9,0,35.4-8.1,45.1-22l0.8-1.3l-7.3-5.2L614.3,282z"/>
	<path class="st0" d="M663.6,309.5c19.4,0,34.8-15.5,34.8-35.1s-15.2-34.8-34.8-34.8c-19.4,0-35.1,15.7-35.1,34.8
		C628.5,293.7,644.2,309.5,663.6,309.5z M663.6,248.2c14.9,0,25.4,10.7,25.4,26.2c0,15.2-10.7,26.5-25.4,26.5
		c-14.9,0-25.7-11-25.7-26.5C637.9,259.2,648.6,248.2,663.6,248.2z"/>
	<path class="st0" d="M761.8,308.2v-38.5c0-13.1,7.3-21.5,18.9-21.5c9.7,0,14.4,5.2,14.4,16.5v43.5h9.2v-44.5
		c0-14.7-8.9-24.1-23.1-24.1c-9.2,0-17,4.5-22.3,12.3c-3.4-7.9-10.7-12.3-20.4-12.3c-7.9,0-14.9,3.7-19.4,10v-8.6h-9.2v67.3h9.2
		v-38.5c0-13.1,7.3-21.5,18.9-21.5c10,0,14.4,5.2,14.4,16.5v43.5H761.8z"/>
	<path class="st0" d="M891.7,239.5c-9.2,0-17,4.5-22.3,12.3c-3.4-7.9-10.7-12.3-20.4-12.3c-7.9,0-14.9,3.7-19.4,10v-8.6h-9.2v67.3
		h9.2v-38.5c0-13.1,7.3-21.5,18.9-21.5c10,0,14.4,5.2,14.4,16.5v43.5h9.2v-38.5c0-13.1,7.3-21.5,18.9-21.5c9.7,0,14.4,5.2,14.4,16.5
		v43.5h9.2v-44.5C914.8,248.9,905.6,239.5,891.7,239.5z"/>
	<path class="st0" d="M977.1,278.3c0,13.6-8.6,22.5-22,22.5c-11.3,0-16.8-6.3-16.8-18.9v-41.1h-9.2v41.9c0,16.2,10,26.7,25.4,26.7
		c9.4,0,17.6-4.2,22.8-11.3v9.7h9.2v-67.1h-9.2v37.5H977.1z"/>
	<path class="st0" d="M1035.3,239.5c-9.4,0-17.8,4.2-22.8,11.3v-10h-9.2v67.3h9.2v-37.5c0-13.6,8.6-22.5,22-22.5
		c14.1,0,17,10.5,17,19.4v40.6h9.2v-41.7C1061,250,1050.8,239.5,1035.3,239.5z"/>
	<rect x="1077.2" y="240.8" class="st0" width="9.2" height="67.3"/>
	<path class="st0" d="M1081.9,207.8c-3.7,0-6.8,3.1-6.8,6.8c0,4.2,3.4,6.8,6.8,6.8c3.4,0,6.8-2.6,6.8-6.8
		C1088.5,211,1085.6,207.8,1081.9,207.8z"/>
	<path class="st0" d="M1152.7,291.6c-4.7,6-11.3,8.9-19.9,8.9c-14.4,0-24.6-10.7-24.6-26.2c0-15.5,10.2-26.5,24.6-26.5
		c8.4,0,14.1,2.6,18.9,8.4l1,1.3l6.8-5.5l-1-1.3c-6.3-7.6-14.7-11.5-25.7-11.5c-19.1,0-34.1,15.5-34.1,35.1s14.9,34.8,34.1,34.8
		c11.5,0,20.2-3.9,27-12.1l1-1.3l-6.8-5.5L1152.7,291.6z"/>
	<path class="st0" d="M1195.6,239.5c-11.3,0-21.2,5-26.7,13.9l-0.8,1.3l6.8,5l0.8-1.3c4.5-6.8,11-10.2,19.6-10.2
		c10.7,0,15.5,5.8,15.5,18.3v1.3h-21.2c-12.6,0-24.9,6.3-24.9,20.2c0,13.4,9.7,21.2,25.7,21.2c10,0,16.5-3.9,20.4-8.1l-0.3,6.8h9.4
		v-42.2C1220.5,249.5,1211.1,239.5,1195.6,239.5z M1211.1,275.9v10c0,9.2-10,14.7-19.6,14.7c-15.5,0-17.3-7.3-17.3-12.8
		c0-10.7,11.5-12.1,16.5-12.1h20.4V275.9z"/>
	<path class="st0" d="M1264,296.6c-2.1,2.4-3.9,4.2-9.2,4.2c-3.4,0-7.1-1.3-7.1-11.3v-40.3h18.6v-8.4h-18.6v-33.5h-9.2v33.5h-10v8.4
		h10v40.3c0,12.3,6,19.9,16.2,19.9c8.1,0,12.3-3.4,15.5-7.1l1-1l-6-6L1264,296.6z"/>
	<rect x="1279.2" y="240.8" class="st0" width="9.2" height="67.3"/>
	<path class="st0" d="M1283.6,207.8c-3.7,0-6.8,3.1-6.8,6.8c0,4.2,3.4,6.8,6.8,6.8s6.8-2.6,6.8-6.8
		C1290.5,211,1287.3,207.8,1283.6,207.8z"/>
	<path class="st0" d="M1335.5,239.5c-19.4,0-35.1,15.7-35.1,34.8c0,19.4,15.7,35.1,35.1,35.1s34.8-15.5,34.8-35.1
		C1370.1,254.7,1354.9,239.5,1335.5,239.5z M1335.5,300.8c-14.9,0-25.7-11-25.7-26.5c0-15.2,10.7-26.2,25.7-26.2
		c14.9,0,25.4,10.7,25.4,26.2C1360.7,289.6,1350.2,300.8,1335.5,300.8z"/>
	<path class="st0" d="M1414.4,239.5c-9.4,0-17.8,4.2-22.8,11.3v-10h-9.2v67.3h9.2v-37.5c0-13.6,8.6-22.5,22-22.5
		c14.1,0,17,10.5,17,19.4v40.6h9.2v-41.7C1439.8,250,1429.8,239.5,1414.4,239.5z"/>
	<path class="st0" d="M1478.8,268.9c-12.6-3.7-15.5-6-15.5-12.1c0-5.2,4.7-8.9,11.8-8.9c7.6,0,12.1,4.7,14.4,8.9l0.8,1.3l7.3-4.5
		l-0.8-1.3c-4.7-8.6-12.1-12.8-21.7-12.8c-11.8,0-20.7,7.6-20.7,17.6c0,12.8,10.5,16.8,21,19.9c11.5,3.7,16.8,5.5,16.8,13.1
		c0,6.5-5.8,10.7-14.4,10.7c-9.2,0-15.5-3.9-19.1-12.1l-0.5-1.3l-8.1,3.7l0.5,1.3c4.5,10.7,14.7,17,27.2,17
		c14.4,0,23.8-7.6,23.8-19.4C1501.3,276.5,1490.1,272,1478.8,268.9z"/>
	<path class="st0" d="M577.7,404.8h34.6v22.5c-8.6,7.9-20.4,11.8-34.8,11.8c-26.7,0-46.9-20.4-46.9-47.4s20.2-47.4,47.2-47.4
		c13.4,0,23.8,3.9,31.2,11.5l1,1l6.3-6.5l-1-1c-8.4-8.9-21.7-13.9-37.7-13.9c-32.5,0-56.8,24.1-56.8,56.3s24.4,56.3,56.6,56.3
		c23.1,0,36.7-8.9,44-16.2l0.5-0.5v-35.1h-43.7v8.6H577.7z"/>
	<path class="st0" d="M662,378.4c-7.1,0-13.1,3.4-17,9.2v-7.9h-9.2V447h9.2v-38c0-14.9,8.1-21.7,16.2-21.7c3.7,0,6.3,0.8,8.4,2.4
		l1.3,1l4.7-7.9l-1-0.8C671.2,379.4,667.2,378.4,662,378.4z"/>
	<path class="st0" d="M711.3,378.1c-19.4,0-35.1,15.7-35.1,34.8c0,19.4,15.7,35.1,35.1,35.1s34.8-15.5,34.8-35.1
		C746.1,393.6,730.9,378.1,711.3,378.1z M711.3,439.4c-14.9,0-25.7-11-25.7-26.5c0-15.2,10.7-26.2,25.7-26.2
		c14.9,0,25.4,10.7,25.4,26.2C736.7,428.4,725.9,439.4,711.3,439.4z"/>
	<path class="st0" d="M805.6,416.9c0,13.6-8.6,22.5-22,22.5c-11.3,0-16.8-6.3-16.8-18.9v-41.1h-9.2v41.9c0,16.2,10,26.7,25.4,26.7
		c9.4,0,17.6-4.2,22.8-11.3v9.7h9.2v-67.3h-9.2v37.7H805.6z"/>
	<path class="st0" d="M866.9,378.1c-10.7,0-19.9,4.7-25.9,12.8l0.3-11.5H832V480h9.2v-44.8c5.8,7.9,15.5,12.8,25.7,12.8
		c19.1,0,33.3-15.2,33.3-35.1C900.1,393,886,378.1,866.9,378.1z M866.1,386.7c14.4,0,24.6,10.7,24.6,26.2s-10.2,26.5-24.6,26.5
		c-14.9,0-25.4-11-25.4-26.5C840.7,397.5,851.1,386.7,866.1,386.7z"/>
</g>
<g>
	<g>
		<path class="st1" d="M7.1,174.3c0,0,190.7-50.3,455.6-41.1l-13.4,263.3c0,0-248.1-39.6-437-26.5L7.1,174.3z"/>
		<path class="st2" d="M132.3,38.3c0,0-53.7,189.1-13.6,431.5l228.4-11c0,0,15.2-294.2,88-445.1L132.3,38.3z"/>
		<path class="st3" d="M394.5,132.1c-118.4,0-215.6,10.7-282.9,21.7c-6.3,57.4-10.5,131.5-4.7,213.5c89.6,0.3,180.2,8.6,246.5,16.2
			C359.7,318.6,372.8,220.7,394.5,132.1z"/>
	</g>
</g>
<g>
	<g class="st4">
		<path d="M71.5,200.7h2.6l39.6,60c3.7,5.5,8.1,13.9,8.1,13.9s5.8-8.4,10-13.9l48.2-60h2.6v128.4h-25.9l0.3-45.1
			c0-8.4,0.8-22.5,0.8-22.5s-7.6,12.3-13.4,19.1L119,311.6h-2.4l-20.4-30.6c-4.7-6.8-11-19.1-11-19.1s-1.6,14.1-2.6,22.5l-6.8,44.8
			H51.1L71.5,200.7z"/>
		<path d="M187.1,265.5c2.9-37.5,34.1-65,70.5-65c22.8,0,38.5,8.1,48.5,25.9l-21,14.1c-5.2-9.7-14.9-16.8-29.3-16.8
			c-22.8,0-39.8,17.8-41.7,41.4c-1.8,23.8,12.1,41.9,35.1,41.9c16.5,0,26.2-7.9,34.1-18.6l19.1,14.1c-12.3,17.3-30.6,28-55,28
			C210.6,330.7,183.9,303.2,187.1,265.5z"/>
		<path d="M299.7,265.5c2.9-37.5,34.3-65,70.7-65c22.3,0,38.8,7.9,49.2,26.5l-21.7,14.7c-5.8-10.7-15.2-17.3-29.6-17.3
			c-23.1,0-40.1,17.8-41.9,41.4c-1.8,23.8,12.3,42.2,35.6,42.2c19.4,0,33-10.7,36.9-23.8h-31.7l1.8-22.8h59.2
			c-1.3,42.2-25.4,69.7-67.8,69.7C322.2,330.7,296.6,303.2,299.7,265.5z"/>
	</g>
	<g>
		<g>
			<path class="st5" d="M68.7,197.3h2.6l39.6,60c3.7,5.5,8.1,13.9,8.1,13.9s5.8-8.4,10-13.9l48.5-60h2.6v128.4h-25.9l0.3-45.1
				c0-8.4,0.8-22.5,0.8-22.5s-7.6,12.3-13.4,19.1l-25.4,30.9H114l-20.7-30.6c-4.7-6.8-11-19.1-11-19.1s-1.6,14.1-2.6,22.5l-6.8,44.8
				H48.2L68.7,197.3z"/>
			<path class="st5" d="M184.2,262.3c2.9-37.7,34.1-65.2,70.5-65.2c22.8,0,38.5,8.1,48.5,25.9l-21,14.1
				c-5.2-9.7-14.9-16.8-29.3-16.8c-22.8,0-39.8,17.8-41.7,41.4c-1.8,23.8,12.1,41.9,35.1,41.9c16.5,0,26.2-7.9,34.1-18.6l19.1,14.1
				c-12.3,17.3-30.6,28-55,28C207.8,327.5,181,299.8,184.2,262.3z"/>
			<path class="st5" d="M296.8,262.3c2.9-37.5,34.3-65,70.7-65c22.3,0,38.8,7.9,49.2,26.5l-21.7,14.7c-5.8-10.7-15.2-17.3-29.6-17.3
				c-23.1,0-40.1,17.8-41.9,41.4c-1.8,23.8,12.3,42.2,35.6,42.2c19.4,0,33-10.7,36.9-23.8h-31.7l1.8-22.8h59.2
				c-1.3,42.2-25.4,69.7-67.8,69.7C319.4,327.5,293.9,299.8,296.8,262.3z"/>
		</g>
	</g>
</g>
</svg>
